<?xml version="1.0" ?><svg height="19px" viewBox="0 0 64 64" xmlns="http://www.w3.org/2000/svg"><defs><style>.cls-1{fill:none;stroke:#fff;stroke-linejoin:round;stroke-width:2px;}</style></defs><title/><g data-name="Layer 4" id="Layer_4"><polygon class="cls-1" points="18 26 32 12 46 26 18 26"/><polyline class="cls-1" points="20 26 20 62 44 62 44 26"/><line class="cls-1" x1="20" x2="44" y1="44" y2="44"/><line class="cls-1" x1="20" x2="44" y1="38" y2="38"/><line class="cls-1" x1="24" x2="24" y1="38" y2="44"/><path class="cls-1" d="M28,44V34a4,4,0,0,1,4-4h0a4,4,0,0,1,4,4V44"/><line class="cls-1" x1="32" x2="32" y1="38" y2="44"/><line class="cls-1" x1="40" x2="40" y1="38" y2="44"/><path class="cls-1" d="M32,50h0a6,6,0,0,1,6,6v6a0,0,0,0,1,0,0H26a0,0,0,0,1,0,0V56A6,6,0,0,1,32,50Z"/><polyline class="cls-1" points="44 38 52 30 62 40 44 40"/><polyline class="cls-1" points="44 62 60 62 60 40"/><polyline class="cls-1" points="20 62 4 62 4 40"/><path class="cls-1" d="M48,62V57a4,4,0,0,1,4-4h0a4,4,0,0,1,4,4v5"/><rect class="cls-1" height="5" width="8" x="48" y="44"/><line class="cls-1" x1="52" x2="52" y1="44" y2="49"/><polyline class="cls-1" points="20 38 12 30 2 40 20 40"/><path class="cls-1" d="M16,62V57a4,4,0,0,0-4-4h0a4,4,0,0,0-4,4v5"/><rect class="cls-1" height="5" transform="translate(24 93) rotate(-180)" width="8" x="8" y="44"/><line class="cls-1" x1="12" x2="12" y1="44" y2="49"/><line class="cls-1" x1="32" x2="32" y1="12" y2="1"/><line class="cls-1" x1="27" x2="37" y1="5" y2="5"/><path class="cls-1" d="M29,11.11a5.1,5.1,0,0,0-1.57.62,5,5,0,0,0-9.34,1.4A4.93,4.93,0,0,0,17,13a5,5,0,0,0,0,10"/><path class="cls-1" d="M49,26a5,5,0,0,0,4.91-4.1A4.93,4.93,0,0,0,57,23a5,5,0,0,0,0-10,4.93,4.93,0,0,0-1.09.13,5,5,0,0,0-9.34-1.4A5,5,0,0,0,44,11a4.94,4.94,0,0,0-2.71.81A6,6,0,0,0,37,10a6,6,0,0,0-2,.34"/><path class="cls-1" d="M48,10a7,7,0,1,1,12,4.9"/></g></svg>