<?xml version="1.0" ?>
<!DOCTYPE svg PUBLIC '-//W3C//DTD SVG 1.1//EN' 'http://www.w3.org/Graphics/SVG/1.1/DTD/svg11.dtd'>
<svg enable-background="new 0 0 32 32" height="19px" version="1.1" viewBox="0 0 32 32" xml:space="preserve" xmlns="http://www.w3.org/2000/svg" xmlns:xlink="http://www.w3.org/1999/xlink">
  <g id="Approved" fill="#fff"/>
  <g id="Approved_1_" fill="#fff"/>
  <g id="File_Approve" fill="#fff"/>
  <g id="Folder_Approved" fill="#fff"/>
  <g id="Security_Approved" fill="#fff"/>
  <g id="Certificate_Approved" fill="#fff"/>
  <g id="User_Approved" fill="#fff"/>
  <g id="ID_Card_Approved" fill="#fff"/>
  <g id="Android_Approved" fill="#fff"/>
  <g id="Privacy_Approved" fill="#fff">
    <path d="M26,24c-0.552,0-1,0.447-1,1v4H7V17h3h12h3c0.552,0,1-0.447,1-1s-0.448-1-1-1h-2V8c0-3.859-3.14-7-7-7S9,4.141,9,8v7H6    c-0.552,0-1,0.447-1,1v14c0,0.553,0.448,1,1,1h20c0.552,0,1-0.447,1-1v-5C27,24.447,26.552,24,26,24z M11,8c0-2.757,2.243-5,5-5    s5,2.243,5,5v7H11V8z"/>
    <path d="M30.73,15.316c-0.378-0.403-1.011-0.425-1.413-0.047l-10.004,9.361l-4.629-4.332c-0.402-0.377-1.036-0.355-1.413,0.047    c-0.377,0.403-0.356,1.036,0.047,1.414l5.313,4.971c0.192,0.18,0.438,0.27,0.683,0.27s0.491-0.09,0.683-0.27l10.688-10    C31.086,16.353,31.107,15.72,30.73,15.316z"/>
  </g>
  <g id="Approved_2_" fill="#fff"/>
  <g id="Message_Approved" fill="#fff"/>
  <g id="Upload_Approved" fill="#fff"/>
  <g id="Download_Approved" fill="#fff"/>
  <g id="Email_Approved" fill="#fff"/>
  <g id="Data_Approved" fill="#fff"/>
</svg>
